<mxfile host="app.diagrams.net" modified="2024-04-12T00:48:11.025Z" agent="Mozilla/5.0 (Windows NT 10.0; Win64; x64) AppleWebKit/537.36 (KHTML, like Gecko) Chrome/123.0.0.0 Safari/537.36" etag="WUosRu48r1Lk-tqoU9F1" version="24.2.3" type="github">
  <diagram id="C5RBs43oDa-KdzZeNtuy" name="Page-1">
    <mxGraphModel dx="2259" dy="820" grid="1" gridSize="10" guides="1" tooltips="1" connect="1" arrows="1" fold="1" page="1" pageScale="1" pageWidth="827" pageHeight="1169" math="0" shadow="0">
      <root>
        <mxCell id="WIyWlLk6GJQsqaUBKTNV-0" />
        <mxCell id="WIyWlLk6GJQsqaUBKTNV-1" parent="WIyWlLk6GJQsqaUBKTNV-0" />
        <mxCell id="qwncf6F_4UgzIGXBQepx-1" value="" style="edgeStyle=orthogonalEdgeStyle;rounded=0;orthogonalLoop=1;jettySize=auto;html=1;" edge="1" parent="WIyWlLk6GJQsqaUBKTNV-1" source="WIyWlLk6GJQsqaUBKTNV-3" target="qwncf6F_4UgzIGXBQepx-0">
          <mxGeometry relative="1" as="geometry" />
        </mxCell>
        <mxCell id="WIyWlLk6GJQsqaUBKTNV-3" value="ENCENDER RELOJ" style="rounded=1;whiteSpace=wrap;html=1;fontSize=12;glass=0;strokeWidth=1;shadow=0;" parent="WIyWlLk6GJQsqaUBKTNV-1" vertex="1">
          <mxGeometry x="300" y="80" width="200" height="40" as="geometry" />
        </mxCell>
        <mxCell id="qwncf6F_4UgzIGXBQepx-6" value="" style="edgeStyle=orthogonalEdgeStyle;rounded=0;orthogonalLoop=1;jettySize=auto;html=1;entryX=0.5;entryY=0;entryDx=0;entryDy=0;" edge="1" parent="WIyWlLk6GJQsqaUBKTNV-1" source="qwncf6F_4UgzIGXBQepx-0" target="qwncf6F_4UgzIGXBQepx-2">
          <mxGeometry relative="1" as="geometry">
            <mxPoint x="580" y="185" as="targetPoint" />
          </mxGeometry>
        </mxCell>
        <mxCell id="qwncf6F_4UgzIGXBQepx-0" value="iNICIA HORAS, MINUTOS, SEGUNDOS EN CEROS." style="rounded=1;whiteSpace=wrap;html=1;" vertex="1" parent="WIyWlLk6GJQsqaUBKTNV-1">
          <mxGeometry x="302.5" y="160" width="195" height="50" as="geometry" />
        </mxCell>
        <mxCell id="qwncf6F_4UgzIGXBQepx-33" style="edgeStyle=orthogonalEdgeStyle;rounded=0;orthogonalLoop=1;jettySize=auto;html=1;exitX=0.5;exitY=1;exitDx=0;exitDy=0;entryX=1;entryY=0;entryDx=0;entryDy=0;" edge="1" parent="WIyWlLk6GJQsqaUBKTNV-1" source="qwncf6F_4UgzIGXBQepx-2" target="qwncf6F_4UgzIGXBQepx-9">
          <mxGeometry relative="1" as="geometry">
            <Array as="points">
              <mxPoint x="625" y="440" />
              <mxPoint x="471" y="440" />
            </Array>
          </mxGeometry>
        </mxCell>
        <mxCell id="qwncf6F_4UgzIGXBQepx-2" value="SUMO UN SEGUNDO" style="rounded=1;whiteSpace=wrap;html=1;" vertex="1" parent="WIyWlLk6GJQsqaUBKTNV-1">
          <mxGeometry x="565" y="300" width="120" height="60" as="geometry" />
        </mxCell>
        <mxCell id="qwncf6F_4UgzIGXBQepx-24" style="edgeStyle=orthogonalEdgeStyle;rounded=0;orthogonalLoop=1;jettySize=auto;html=1;exitX=0.5;exitY=1;exitDx=0;exitDy=0;entryX=0.5;entryY=0;entryDx=0;entryDy=0;" edge="1" parent="WIyWlLk6GJQsqaUBKTNV-1" source="qwncf6F_4UgzIGXBQepx-3" target="qwncf6F_4UgzIGXBQepx-9">
          <mxGeometry relative="1" as="geometry" />
        </mxCell>
        <mxCell id="qwncf6F_4UgzIGXBQepx-3" value="SUMO UN MINUTO&lt;span style=&quot;white-space: pre;&quot;&gt;&#x9;&lt;/span&gt;&lt;span style=&quot;white-space: pre;&quot;&gt;&#x9;&lt;/span&gt;&lt;span style=&quot;white-space: pre;&quot;&gt;&#x9;&lt;/span&gt;" style="rounded=1;whiteSpace=wrap;html=1;" vertex="1" parent="WIyWlLk6GJQsqaUBKTNV-1">
          <mxGeometry x="340" y="300" width="120" height="60" as="geometry" />
        </mxCell>
        <mxCell id="qwncf6F_4UgzIGXBQepx-43" style="edgeStyle=orthogonalEdgeStyle;rounded=0;orthogonalLoop=1;jettySize=auto;html=1;exitX=0;exitY=0.5;exitDx=0;exitDy=0;entryX=0.5;entryY=0;entryDx=0;entryDy=0;" edge="1" parent="WIyWlLk6GJQsqaUBKTNV-1" source="qwncf6F_4UgzIGXBQepx-4" target="qwncf6F_4UgzIGXBQepx-39">
          <mxGeometry relative="1" as="geometry" />
        </mxCell>
        <mxCell id="qwncf6F_4UgzIGXBQepx-4" value="SUMO UNA HORA" style="rounded=1;whiteSpace=wrap;html=1;" vertex="1" parent="WIyWlLk6GJQsqaUBKTNV-1">
          <mxGeometry x="120" y="300" width="120" height="60" as="geometry" />
        </mxCell>
        <mxCell id="qwncf6F_4UgzIGXBQepx-22" style="edgeStyle=orthogonalEdgeStyle;rounded=0;orthogonalLoop=1;jettySize=auto;html=1;exitX=1;exitY=0.5;exitDx=0;exitDy=0;entryX=0;entryY=0.5;entryDx=0;entryDy=0;" edge="1" parent="WIyWlLk6GJQsqaUBKTNV-1" source="qwncf6F_4UgzIGXBQepx-9" target="qwncf6F_4UgzIGXBQepx-16">
          <mxGeometry relative="1" as="geometry" />
        </mxCell>
        <mxCell id="qwncf6F_4UgzIGXBQepx-26" style="edgeStyle=orthogonalEdgeStyle;rounded=0;orthogonalLoop=1;jettySize=auto;html=1;exitX=0;exitY=0.5;exitDx=0;exitDy=0;entryX=1;entryY=0.5;entryDx=0;entryDy=0;" edge="1" parent="WIyWlLk6GJQsqaUBKTNV-1" source="qwncf6F_4UgzIGXBQepx-9" target="qwncf6F_4UgzIGXBQepx-15">
          <mxGeometry relative="1" as="geometry" />
        </mxCell>
        <mxCell id="qwncf6F_4UgzIGXBQepx-9" value="EL NUMERO LLEGA A 59" style="rhombus;whiteSpace=wrap;html=1;" vertex="1" parent="WIyWlLk6GJQsqaUBKTNV-1">
          <mxGeometry x="257.5" y="460" width="285" height="150" as="geometry" />
        </mxCell>
        <mxCell id="qwncf6F_4UgzIGXBQepx-28" style="edgeStyle=orthogonalEdgeStyle;rounded=0;orthogonalLoop=1;jettySize=auto;html=1;exitX=0.5;exitY=0;exitDx=0;exitDy=0;" edge="1" parent="WIyWlLk6GJQsqaUBKTNV-1" source="qwncf6F_4UgzIGXBQepx-15" target="qwncf6F_4UgzIGXBQepx-3">
          <mxGeometry relative="1" as="geometry">
            <Array as="points">
              <mxPoint x="90" y="240" />
              <mxPoint x="400" y="240" />
            </Array>
          </mxGeometry>
        </mxCell>
        <mxCell id="qwncf6F_4UgzIGXBQepx-29" style="edgeStyle=orthogonalEdgeStyle;rounded=0;orthogonalLoop=1;jettySize=auto;html=1;exitX=0.5;exitY=0;exitDx=0;exitDy=0;entryX=0.25;entryY=0;entryDx=0;entryDy=0;" edge="1" parent="WIyWlLk6GJQsqaUBKTNV-1" source="qwncf6F_4UgzIGXBQepx-15" target="qwncf6F_4UgzIGXBQepx-2">
          <mxGeometry relative="1" as="geometry">
            <Array as="points">
              <mxPoint x="90" y="240" />
              <mxPoint x="595" y="240" />
            </Array>
          </mxGeometry>
        </mxCell>
        <mxCell id="qwncf6F_4UgzIGXBQepx-15" value="NO" style="ellipse;whiteSpace=wrap;html=1;" vertex="1" parent="WIyWlLk6GJQsqaUBKTNV-1">
          <mxGeometry x="30" y="495" width="120" height="80" as="geometry" />
        </mxCell>
        <mxCell id="qwncf6F_4UgzIGXBQepx-37" style="edgeStyle=orthogonalEdgeStyle;rounded=0;orthogonalLoop=1;jettySize=auto;html=1;exitX=0.5;exitY=1;exitDx=0;exitDy=0;entryX=0.5;entryY=0;entryDx=0;entryDy=0;" edge="1" parent="WIyWlLk6GJQsqaUBKTNV-1" source="qwncf6F_4UgzIGXBQepx-16" target="qwncf6F_4UgzIGXBQepx-34">
          <mxGeometry relative="1" as="geometry" />
        </mxCell>
        <mxCell id="qwncf6F_4UgzIGXBQepx-16" value="SI" style="ellipse;whiteSpace=wrap;html=1;" vertex="1" parent="WIyWlLk6GJQsqaUBKTNV-1">
          <mxGeometry x="650" y="495" width="120" height="80" as="geometry" />
        </mxCell>
        <mxCell id="qwncf6F_4UgzIGXBQepx-41" style="edgeStyle=orthogonalEdgeStyle;rounded=0;orthogonalLoop=1;jettySize=auto;html=1;exitX=1;exitY=0.5;exitDx=0;exitDy=0;entryX=1;entryY=0.5;entryDx=0;entryDy=0;" edge="1" parent="WIyWlLk6GJQsqaUBKTNV-1" source="qwncf6F_4UgzIGXBQepx-34" target="qwncf6F_4UgzIGXBQepx-2">
          <mxGeometry relative="1" as="geometry">
            <Array as="points">
              <mxPoint x="860" y="730" />
              <mxPoint x="860" y="330" />
            </Array>
          </mxGeometry>
        </mxCell>
        <mxCell id="qwncf6F_4UgzIGXBQepx-50" style="edgeStyle=orthogonalEdgeStyle;rounded=0;orthogonalLoop=1;jettySize=auto;html=1;exitX=1;exitY=0.5;exitDx=0;exitDy=0;entryX=0.75;entryY=0;entryDx=0;entryDy=0;" edge="1" parent="WIyWlLk6GJQsqaUBKTNV-1" source="qwncf6F_4UgzIGXBQepx-34" target="qwncf6F_4UgzIGXBQepx-3">
          <mxGeometry relative="1" as="geometry">
            <Array as="points">
              <mxPoint x="860" y="730" />
              <mxPoint x="860" y="260" />
              <mxPoint x="430" y="260" />
            </Array>
          </mxGeometry>
        </mxCell>
        <mxCell id="qwncf6F_4UgzIGXBQepx-51" style="edgeStyle=orthogonalEdgeStyle;rounded=0;orthogonalLoop=1;jettySize=auto;html=1;exitX=1;exitY=0.5;exitDx=0;exitDy=0;entryX=0.75;entryY=1;entryDx=0;entryDy=0;" edge="1" parent="WIyWlLk6GJQsqaUBKTNV-1" target="qwncf6F_4UgzIGXBQepx-4">
          <mxGeometry relative="1" as="geometry">
            <mxPoint x="770" y="720" as="sourcePoint" />
            <mxPoint x="210" y="290" as="targetPoint" />
          </mxGeometry>
        </mxCell>
        <mxCell id="qwncf6F_4UgzIGXBQepx-34" value="DEJO EN CEROS" style="rounded=1;whiteSpace=wrap;html=1;" vertex="1" parent="WIyWlLk6GJQsqaUBKTNV-1">
          <mxGeometry x="650" y="700" width="120" height="60" as="geometry" />
        </mxCell>
        <mxCell id="qwncf6F_4UgzIGXBQepx-47" style="edgeStyle=orthogonalEdgeStyle;rounded=0;orthogonalLoop=1;jettySize=auto;html=1;exitX=0;exitY=0.5;exitDx=0;exitDy=0;entryX=0;entryY=0.5;entryDx=0;entryDy=0;" edge="1" parent="WIyWlLk6GJQsqaUBKTNV-1" source="qwncf6F_4UgzIGXBQepx-39" target="qwncf6F_4UgzIGXBQepx-44">
          <mxGeometry relative="1" as="geometry" />
        </mxCell>
        <mxCell id="qwncf6F_4UgzIGXBQepx-39" value="LLEGA A 23 EL NUMERO" style="rhombus;whiteSpace=wrap;html=1;" vertex="1" parent="WIyWlLk6GJQsqaUBKTNV-1">
          <mxGeometry x="-230" y="380" width="185" height="80" as="geometry" />
        </mxCell>
        <mxCell id="qwncf6F_4UgzIGXBQepx-49" style="edgeStyle=orthogonalEdgeStyle;rounded=0;orthogonalLoop=1;jettySize=auto;html=1;exitX=1;exitY=0.5;exitDx=0;exitDy=0;entryX=0.5;entryY=0;entryDx=0;entryDy=0;" edge="1" parent="WIyWlLk6GJQsqaUBKTNV-1" source="qwncf6F_4UgzIGXBQepx-44" target="qwncf6F_4UgzIGXBQepx-4">
          <mxGeometry relative="1" as="geometry">
            <Array as="points">
              <mxPoint y="545" />
              <mxPoint y="270" />
              <mxPoint x="180" y="270" />
            </Array>
          </mxGeometry>
        </mxCell>
        <mxCell id="qwncf6F_4UgzIGXBQepx-44" value="NO" style="ellipse;whiteSpace=wrap;html=1;" vertex="1" parent="WIyWlLk6GJQsqaUBKTNV-1">
          <mxGeometry x="-190" y="505" width="120" height="80" as="geometry" />
        </mxCell>
        <mxCell id="qwncf6F_4UgzIGXBQepx-48" style="edgeStyle=orthogonalEdgeStyle;rounded=0;orthogonalLoop=1;jettySize=auto;html=1;exitX=0.5;exitY=1;exitDx=0;exitDy=0;entryX=0.5;entryY=1;entryDx=0;entryDy=0;" edge="1" parent="WIyWlLk6GJQsqaUBKTNV-1" source="qwncf6F_4UgzIGXBQepx-45" target="qwncf6F_4UgzIGXBQepx-34">
          <mxGeometry relative="1" as="geometry">
            <Array as="points">
              <mxPoint x="-137" y="840" />
              <mxPoint x="710" y="840" />
            </Array>
          </mxGeometry>
        </mxCell>
        <mxCell id="qwncf6F_4UgzIGXBQepx-45" value="SI" style="ellipse;whiteSpace=wrap;html=1;" vertex="1" parent="WIyWlLk6GJQsqaUBKTNV-1">
          <mxGeometry x="-197.5" y="680" width="120" height="80" as="geometry" />
        </mxCell>
        <mxCell id="qwncf6F_4UgzIGXBQepx-46" style="edgeStyle=orthogonalEdgeStyle;rounded=0;orthogonalLoop=1;jettySize=auto;html=1;exitX=1;exitY=0.5;exitDx=0;exitDy=0;entryX=1.029;entryY=0.6;entryDx=0;entryDy=0;entryPerimeter=0;" edge="1" parent="WIyWlLk6GJQsqaUBKTNV-1" source="qwncf6F_4UgzIGXBQepx-39" target="qwncf6F_4UgzIGXBQepx-45">
          <mxGeometry relative="1" as="geometry">
            <Array as="points">
              <mxPoint x="-25" y="420" />
              <mxPoint x="-25" y="728" />
            </Array>
          </mxGeometry>
        </mxCell>
      </root>
    </mxGraphModel>
  </diagram>
</mxfile>
